<svg width="32" height="32" viewBox="0 0 32 32" fill="none" xmlns="http://www.w3.org/2000/svg">
<path d="M32 3.2V8C32 8.84869 31.6629 9.66263 31.0627 10.2627C30.4626 10.8629 29.6487 11.2 28.8 11.2H20.8C19.9513 11.2 19.1374 10.8629 18.5373 10.2627C17.9371 9.66263 17.6 8.84869 17.6 8V3.2C17.6 2.35131 17.9371 1.53737 18.5373 0.937258C19.1374 0.337142 19.9513 0 20.8 0H28.8C29.6487 0 30.4626 0.337142 31.0627 0.937258C31.6629 1.53737 32 2.35131 32 3.2ZM11.2 20.8H3.2C2.35131 20.8 1.53737 21.1371 0.937258 21.7373C0.337142 22.3374 0 23.1513 0 24V28.8C0 29.6487 0.337142 30.4626 0.937258 31.0627C1.53737 31.6629 2.35131 32 3.2 32H11.2C12.0487 32 12.8626 31.6629 13.4627 31.0627C14.0629 30.4626 14.4 29.6487 14.4 28.8V24C14.4 23.1513 14.0629 22.3374 13.4627 21.7373C12.8626 21.1371 12.0487 20.8 11.2 20.8Z" fill="#144EE3"/>
<path d="M14.4 3.2V14.4C14.4 15.2487 14.0629 16.0626 13.4627 16.6627C12.8626 17.2629 12.0487 17.6 11.2 17.6H3.2C2.35131 17.6 1.53737 17.2629 0.937258 16.6627C0.337142 16.0626 0 15.2487 0 14.4V3.2C0 2.35131 0.337142 1.53737 0.937258 0.937258C1.53737 0.337142 2.35131 0 3.2 0H11.2C12.0487 0 12.8626 0.337142 13.4627 0.937258C14.0629 1.53737 14.4 2.35131 14.4 3.2ZM28.8 14.4H20.8C19.9513 14.4 19.1374 14.7371 18.5373 15.3373C17.9371 15.9374 17.6 16.7513 17.6 17.6V28.8C17.6 29.6487 17.9371 30.4626 18.5373 31.0627C19.1374 31.6629 19.9513 32 20.8 32H28.8C29.6487 32 30.4626 31.6629 31.0627 31.0627C31.6629 30.4626 32 29.6487 32 28.8V17.6C32 16.7513 31.6629 15.9374 31.0627 15.3373C30.4626 14.7371 29.6487 14.4 28.8 14.4Z" fill="#8B44FF"/>
</svg>
