<svg width="169" height="42" viewBox="0 0 169 42" fill="none" xmlns="http://www.w3.org/2000/svg">
<path d="M41.8333 4.33332V10.5833C41.8333 11.6884 41.3943 12.7482 40.6129 13.5296C39.8315 14.311 38.7717 14.75 37.6667 14.75H27.25C26.1449 14.75 25.0851 14.311 24.3037 13.5296C23.5223 12.7482 23.0833 11.6884 23.0833 10.5833V4.33332C23.0833 3.22825 23.5223 2.16845 24.3037 1.38704C25.0851 0.605643 26.1449 0.166656 27.25 0.166656H37.6667C38.7717 0.166656 39.8315 0.605643 40.6129 1.38704C41.3943 2.16845 41.8333 3.22825 41.8333 4.33332ZM14.75 27.25H4.33332C3.22825 27.25 2.16845 27.689 1.38704 28.4704C0.605643 29.2518 0.166656 30.3116 0.166656 31.4167V37.6667C0.166656 38.7717 0.605643 39.8315 1.38704 40.6129C2.16845 41.3943 3.22825 41.8333 4.33332 41.8333H14.75C15.8551 41.8333 16.9149 41.3943 17.6963 40.6129C18.4777 39.8315 18.9167 38.7717 18.9167 37.6667V31.4167C18.9167 30.3116 18.4777 29.2518 17.6963 28.4704C16.9149 27.689 15.8551 27.25 14.75 27.25Z" fill="#144EE3"/>
<path d="M18.9167 4.33332V18.9167C18.9167 20.0217 18.4777 21.0815 17.6963 21.8629C16.9149 22.6443 15.8551 23.0833 14.75 23.0833H4.33332C3.22825 23.0833 2.16845 22.6443 1.38704 21.8629C0.605643 21.0815 0.166656 20.0217 0.166656 18.9167V4.33332C0.166656 3.22825 0.605643 2.16845 1.38704 1.38704C2.16845 0.605643 3.22825 0.166656 4.33332 0.166656H14.75C15.8551 0.166656 16.9149 0.605643 17.6963 1.38704C18.4777 2.16845 18.9167 3.22825 18.9167 4.33332ZM37.6667 18.9167H27.25C26.1449 18.9167 25.0851 19.3556 24.3037 20.137C23.5223 20.9184 23.0833 21.9783 23.0833 23.0833V37.6667C23.0833 38.7717 23.5223 39.8315 24.3037 40.6129C25.0851 41.3943 26.1449 41.8333 27.25 41.8333H37.6667C38.7717 41.8333 39.8315 41.3943 40.6129 40.6129C41.3943 39.8315 41.8333 38.7717 41.8333 37.6667V23.0833C41.8333 21.9783 41.3943 20.9184 40.6129 20.137C39.8315 19.3556 38.7717 18.9167 37.6667 18.9167Z" fill="#8B44FF"/>
<path d="M65.696 31.5C72.576 31.5 76.8 27.5 76.8 20.78C76.8 14.06 72.576 10.06 65.696 10.06H57.504V31.5H65.696ZM65.632 14.38C69.984 14.38 71.648 15.692 71.648 20.78C71.648 25.868 69.984 27.18 65.632 27.18H62.304V14.38H65.632Z" fill="white"/>
<path d="M83.545 31.82C86.521 31.82 88.153 30.508 89.017 29.324H89.209V31.5H93.657V21.964C93.657 17.676 91.161 15.084 86.425 15.084C81.881 15.084 78.905 17.612 78.905 21.452V21.804H83.481V21.452C83.481 19.82 84.249 19.276 86.201 19.276C88.089 19.276 89.113 19.628 89.113 21.516V22.028L83.609 22.86C80.281 23.372 78.489 24.908 78.489 27.404C78.489 30.316 80.697 31.82 83.545 31.82ZM83.065 27.02C83.065 26.348 83.513 26.028 84.505 25.868L89.113 25.164C89.113 27.66 87.097 28.172 85.145 28.172C83.737 28.172 83.065 27.884 83.065 27.02Z" fill="white"/>
<path d="M101.271 31.5V21.42C101.271 19.66 101.975 19.148 103.447 19.148C104.951 19.148 105.495 19.692 105.495 21.42V22.284H110.263V20.812C110.263 17.58 109.015 15.084 105.655 15.084C103.383 15.084 101.943 16.364 101.143 17.996H100.951V15.404H96.5032V31.5H101.271Z" fill="white"/>
<path d="M116.927 31.5V25.644H119.391L122.911 31.5H128.415L123.199 23.084L128.447 15.404H122.943L119.295 21.356H116.927V10.06H112.159V31.5H116.927Z" fill="white"/>
<path d="M144.733 31.5V27.308H137.533L135.549 27.34L135.517 27.02L137.533 25.356L144.253 19.436V15.404H129.501V19.596H135.453L137.725 19.532L137.757 19.884L135.453 21.804L129.021 27.82V31.5H144.733Z" fill="white"/>
<path d="M150.982 31.82C153.958 31.82 155.59 30.508 156.454 29.324H156.646V31.5H161.094V21.964C161.094 17.676 158.598 15.084 153.862 15.084C149.318 15.084 146.342 17.612 146.342 21.452V21.804H150.918V21.452C150.918 19.82 151.686 19.276 153.638 19.276C155.526 19.276 156.55 19.628 156.55 21.516V22.028L151.046 22.86C147.718 23.372 145.926 24.908 145.926 27.404C145.926 30.316 148.134 31.82 150.982 31.82ZM150.502 27.02C150.502 26.348 150.95 26.028 151.942 25.868L156.55 25.164C156.55 27.66 154.534 28.172 152.582 28.172C151.174 28.172 150.502 27.884 150.502 27.02Z" fill="white"/>
<path d="M168.453 13.58V10.06H163.685L163.749 13.58H168.453ZM168.549 31.5V15.404H163.749V31.5H168.549Z" fill="white"/>
</svg>
