<svg width="256" height="256" viewBox="0 0 256 256" fill="none" xmlns="http://www.w3.org/2000/svg">
<path d="M256 25.6V64C256 70.7895 253.303 77.301 248.502 82.1019C243.701 86.9029 237.19 89.6 230.4 89.6H166.4C159.61 89.6 153.099 86.9029 148.298 82.1019C143.497 77.301 140.8 70.7895 140.8 64V25.6C140.8 18.8105 143.497 12.299 148.298 7.49807C153.099 2.69713 159.61 0 166.4 0H230.4C237.19 0 243.701 2.69713 248.502 7.49807C253.303 12.299 256 18.8105 256 25.6ZM89.6 166.4H25.6C18.8105 166.4 12.299 169.097 7.49807 173.898C2.69713 178.699 0 185.21 0 192V230.4C0 237.19 2.69713 243.701 7.49807 248.502C12.299 253.303 18.8105 256 25.6 256H89.6C96.3895 256 102.901 253.303 107.702 248.502C112.503 243.701 115.2 237.19 115.2 230.4V192C115.2 185.21 112.503 178.699 107.702 173.898C102.901 169.097 96.3895 166.4 89.6 166.4Z" fill="#144EE3"/>
<path d="M115.2 25.6V115.2C115.2 121.99 112.503 128.501 107.702 133.302C102.901 138.103 96.3895 140.8 89.6 140.8H25.6C18.8105 140.8 12.299 138.103 7.49807 133.302C2.69713 128.501 0 121.99 0 115.2V25.6C0 18.8105 2.69713 12.299 7.49807 7.49807C12.299 2.69713 18.8105 0 25.6 0H89.6C96.3895 0 102.901 2.69713 107.702 7.49807C112.503 12.299 115.2 18.8105 115.2 25.6ZM230.4 115.2H166.4C159.61 115.2 153.099 117.897 148.298 122.698C143.497 127.499 140.8 134.01 140.8 140.8V230.4C140.8 237.19 143.497 243.701 148.298 248.502C153.099 253.303 159.61 256 166.4 256H230.4C237.19 256 243.701 253.303 248.502 248.502C253.303 243.701 256 237.19 256 230.4V140.8C256 134.01 253.303 127.499 248.502 122.698C243.701 117.897 237.19 115.2 230.4 115.2Z" fill="#8B44FF"/>
</svg>
